<svg width="193" height="189" viewBox="0 0 193 189" fill="none" xmlns="http://www.w3.org/2000/svg">
<path d="M27.6567 64.752C27.6565 61.86 28.4177 59.0189 29.8637 56.5143C31.3097 54.0097 33.3896 51.9298 35.8943 50.4839L88.0867 20.3506C90.5913 18.9044 93.4324 18.1431 96.3245 18.1431C99.2165 18.1431 102.058 18.9045 104.562 20.3507L140.315 40.9925C142.13 35.8231 145.324 31.2487 149.553 27.7649L106.491 2.90454C103.4 1.12013 99.8943 0.180712 96.3254 0.180679C92.7564 0.180623 89.2503 1.11997 86.1595 2.9043L21.7502 40.091C18.6594 41.8757 16.0929 44.4423 14.3085 47.5332C12.5241 50.6239 11.5846 54.13 11.5845 57.6989L11.5846 109.329C16.6676 107.238 22.2276 106.582 27.6574 107.436L27.6567 64.752Z" fill="#A2CAFF"/>
<path d="M166.203 80.171L166.203 124.281C166.204 127.174 165.441 130.014 163.996 132.519C162.549 135.024 160.469 137.103 157.965 138.549L105.772 168.683C103.267 170.129 100.427 170.89 97.534 170.89C94.6426 170.89 91.8008 170.129 89.2966 168.683L52.3319 147.341C50.3561 152.47 47.0088 156.958 42.6556 160.313L87.3687 186.129C90.4591 187.913 93.9654 188.853 97.5341 188.853C101.104 188.852 104.609 187.914 107.7 186.129L172.11 148.942C175.201 147.157 177.767 144.591 179.552 141.5C181.336 138.409 182.276 134.903 182.275 131.334L182.272 77.7702C177.238 80.0347 171.678 80.8655 166.203 80.171Z" fill="#A2CAFF"/>
<path d="M12.3401 117.204C8.2037 119.592 4.86801 123.154 2.75559 127.437C0.642919 131.721 -0.151951 136.536 0.471477 141.272C1.09509 146.006 3.10875 150.451 6.25792 154.042C9.40745 157.633 13.5507 160.21 18.1644 161.446C22.7781 162.682 27.6549 162.522 32.1777 160.987C36.7008 159.452 40.6669 156.609 43.5744 152.821C46.4822 149.031 48.2009 144.465 48.5133 139.698C48.8256 134.932 47.7178 130.18 45.3294 126.044C42.1217 120.503 36.8471 116.46 30.6626 114.803C24.478 113.145 17.8886 114.009 12.3401 117.204Z" fill="#5B9DFF"/>
<path d="M156.476 28.477C152.34 30.8653 149.004 34.4262 146.892 38.7104C144.78 42.9941 143.985 47.8082 144.608 52.5438C145.232 57.2794 147.245 61.7237 150.394 65.3147C153.544 68.906 157.687 71.4825 162.3 72.7186C166.915 73.955 171.791 73.7953 176.315 72.2601C180.837 70.7247 184.803 67.8824 187.711 64.0931C190.618 60.3037 192.337 55.7371 192.649 50.9709C192.962 46.2048 191.854 41.4528 189.466 37.3165C186.259 31.7753 180.983 27.7324 174.798 26.0752C168.615 24.4182 162.025 25.2818 156.476 28.477Z" fill="#5B9DFF"/>
<path fill-rule="evenodd" clip-rule="evenodd" d="M90.7608 158.615C91.6009 159.1 92.5002 159.472 93.4371 159.723C94.8444 160.105 96.3129 160.203 97.7585 160.013C99.2037 159.823 100.598 159.348 101.859 158.616L149.3 131.226C150.987 130.249 152.386 128.847 153.36 127.16C154.335 125.474 154.848 123.561 154.852 121.612L154.854 81.4211C148.609 78.6439 143.348 74.0449 139.761 68.227C136.173 62.4089 134.427 55.6432 134.75 48.8158L101.862 29.8277C100.174 28.8532 98.2598 28.3402 96.311 28.3401C94.3623 28.3401 92.448 28.8531 90.7604 29.8275L43.3185 57.2189C41.633 58.1955 40.2333 59.5972 39.2593 61.2842C38.2853 62.9711 37.7712 64.8841 37.7683 66.832L37.7687 105.9C43.9341 108.855 49.0621 113.605 52.4807 119.525C55.8991 125.446 57.4479 132.262 56.9242 139.079L90.7608 158.615ZM127.352 57.3057C121.528 46.6182 108.161 42.6858 97.4969 48.5225L76.4672 59.7277C75.4133 60.1861 74.3816 60.7334 73.3818 61.3717C63.1335 67.9147 60.1183 81.5446 66.6472 91.815L72.951 101.731C62.7091 107.724 59.0233 120.836 64.7447 131.335C70.5689 142.023 83.9357 145.955 94.6003 140.119L113.292 129.952C114.226 129.527 115.141 129.031 116.031 128.462C126.28 121.919 129.295 108.29 122.766 98.0191L116.597 88.3153L118.588 87.2257C129.253 81.3889 133.177 67.9933 127.352 57.3057ZM111.794 121.336C118.351 117.15 120.281 108.429 116.103 101.857L97.3025 72.2824C93.1249 65.7108 84.4225 63.7774 77.865 67.9639C71.3076 72.1505 69.3783 80.8717 73.5559 87.4432L92.3564 117.018C96.2997 123.221 104.274 125.291 110.671 121.983L111.794 121.336ZM96.1175 130.372C91.9501 128.724 88.2448 125.79 85.6535 121.713L77.3464 108.646C70.604 112.411 68.1392 120.928 71.8462 127.731C75.5728 134.569 84.1257 137.085 90.9495 133.351L96.1175 130.372ZM103.76 68.1208C100.975 63.7408 96.9047 60.6791 92.3564 59.1155L101.148 55.2907C107.972 51.556 116.524 54.0722 120.251 60.9107C123.978 67.7492 121.467 76.3204 114.643 80.0551L112.197 81.3937L103.76 68.1208Z" fill="#5B9DFF"/>
</svg>
